<?xml version="1.0" encoding="windows-1252"?>
<!-- Generator: Adobe Illustrator 16.0.0, SVG Export Plug-In . SVG Version: 6.00 Build 0)  -->
<!DOCTYPE svg PUBLIC "-//W3C//DTD SVG 1.1//EN" "http://www.w3.org/Graphics/SVG/1.1/DTD/svg11.dtd">
<svg version="1.1" id="Capa_1" xmlns="http://www.w3.org/2000/svg" xmlns:xlink="http://www.w3.org/1999/xlink" x="0px" y="0px" width="354px" height="354px" viewBox="0 0 354 354" style="enable-background:new 0 0 354 354;" xml:space="preserve">
<g>
	<g>
		<circle cx="156.125" cy="329.452" r="24.548"/>
		<circle cx="115.747" cy="264.614" r="31.072"/>
		<circle cx="196.604" cy="264.614" r="31.072"/>
		<circle cx="72.374" cy="198.726" r="32.548"/>
		<circle cx="156.128" cy="198.726" r="32.548"/>
		<circle cx="239.978" cy="198.726" r="32.548"/>
		<circle cx="110.127" cy="132.002" r="34.548"/>
		<circle cx="201.128" cy="132.002" r="34.548"/>
		<path d="M162.822,102.166c0,0,4.843-24.989,19.123-52.68c7.097-13.76,42.327-43.646,42.327-43.646    c3.227-3.699,1.979-5.711-2.77-4.472L197.72,7.571c-4.748,1.239-12.377,0.797-16.953-0.982l-15.492-6.024    c-4.575-1.779-8.318,0.781-8.318,5.689v93.71C156.957,104.875,159.595,105.865,162.822,102.166z"/>
		<path d="M299.866,29.166c-9.637-10.24-22.686-16.114-36.74-16.54c-17.184-0.514-33.578,5.687-46.109,17.482    c-12.533,11.795-19.723,27.765-20.243,44.967c-0.093,3.036,2.295,5.572,5.331,5.664c3.047,0.079,5.572-2.295,5.664-5.331    c0.432-14.265,6.394-27.508,16.787-37.29c10.394-9.781,23.98-14.938,38.238-14.497c11.117,0.337,21.439,4.983,29.062,13.083    c7.623,8.1,11.637,18.684,11.299,29.802c-0.537,17.754-15.42,31.757-33.176,31.225c-13.598-0.412-24.326-11.81-23.914-25.407    c0.15-4.976,2.23-9.596,5.855-13.008s8.361-5.21,13.338-5.057c3.686,0.111,7.109,1.652,9.637,4.339    c2.529,2.686,3.859,6.196,3.748,9.883c-0.092,3.036,2.295,5.572,5.33,5.664c3.043,0.089,5.572-2.295,5.664-5.331    c0.201-6.624-2.189-12.929-6.73-17.755c-4.543-4.826-10.691-7.594-17.316-7.795c-7.912-0.236-15.445,2.616-21.209,8.042    c-5.766,5.426-9.072,12.771-9.312,20.685c-0.596,19.66,14.914,36.139,34.576,36.735c0.449,0.014,0.895,0.02,1.34,0.02    c11.047,0,21.508-4.143,29.588-11.746c8.404-7.912,13.227-18.623,13.576-30.161C314.577,52.785,309.505,39.404,299.866,29.166z"/>
	</g>
</g>
</svg>